<?xml version="1.0" standalone="no"?><!DOCTYPE svg PUBLIC "-//W3C//DTD SVG 1.1//EN" "http://www.w3.org/Graphics/SVG/1.1/DTD/svg11.dtd"><svg t="1751919398430" class="icon" viewBox="0 0 1024 1024" version="1.1" xmlns="http://www.w3.org/2000/svg" p-id="10096" xmlns:xlink="http://www.w3.org/1999/xlink" width="200" height="200"><path d="M552.6 948.6h308.3c53.1 0 92.7-41.9 81.8-86.4L868 559.1c-0.8-3.4-2-6.7-3.4-9.9-178.6 45.4-311 206.8-312 399.4z" fill="#5EEAEA" p-id="10097"></path><path d="M512 75.4c-137 0-248 111.1-248 248s211.7 364.2 248 364.2c30.2 0 248-227.2 248-364.2s-111-248-248-248z m3 363c-55.1 0-99.8-44.7-99.8-99.8 0-55.1 44.7-99.8 99.8-99.8s99.8 44.7 99.8 99.8c0 55.1-44.6 99.8-99.8 99.8z" fill="#FE7170" p-id="10098"></path><path d="M125.9 671.1c0.9 0.2 1.7 0.3 2.6 0.3 5.1 0 9.7-3.5 10.9-8.7l7.4-31.7c1.4-6-2.3-12-8.4-13.5-6-1.4-12 2.3-13.5 8.4l-7.4 31.7c-1.4 6.1 2.4 12.1 8.4 13.5zM515 449.6c61.2 0 111-49.8 111-111s-49.8-111-111-111-111 49.8-111 111 49.8 111 111 111z m0-199.6c48.9 0 88.6 39.8 88.6 88.6s-39.8 88.6-88.6 88.6c-48.9 0-88.6-39.8-88.6-88.6S466.2 250 515 250z" fill="#2D3A69" p-id="10099"></path><path d="M953.6 859.5l-74.7-303.1c-9.3-37.9-48.3-65.3-92.6-65.3H708c33-52.1 63.3-114.4 63.3-167.6 0-142.9-116.3-259.2-259.2-259.2S252.8 180.5 252.8 323.5c0 53.6 29.6 115.7 61.8 167.6h-80.8c-44.8 0-83.9 27.8-92.8 66.2l-1.6 7c-1.4 6 2.3 12 8.4 13.4 6 1.4 12-2.3 13.4-8.4l1.6-6.9c6.6-28.3 36.5-48.9 71-48.9H253l-10.4 72.1c-5.5 38.2 5.9 76.9 31.3 106 25.4 29.1 62.2 45.7 100.8 45.3l212.7-1.7c68.9 0 127 53.8 132.2 122.5l6.1 79.6H163.1c-24.3 0-46.9-10.2-60.4-27.2-10.5-13.1-14.3-29-10.7-44.6l37.5-160.6c1.4-6-2.3-12-8.4-13.5-6-1.4-12 2.3-13.5 8.4L70.2 860.4c-5.2 22.4 0.1 45 14.9 63.7 17.7 22.3 46.8 35.6 77.9 35.6h697.9c31.3 0 60.6-13.5 78.2-36 14.9-18.9 20-41.7 14.5-64.2zM512 86.6c130.6 0 236.9 106.2 236.9 236.8 0 74.1-67.4 171.5-107.5 223-59.1 75.7-116.9 126.6-129.6 129.9-12.2-2-68-48.1-130-128.1-67.8-87.6-106.7-169.5-106.7-224.7 0-130.6 106.3-236.9 236.9-236.9z m188.6 415.8c0 0.1-0.1 0.1-0.1 0.2 0-0.1 0.1-0.1 0.1-0.2z m220.9 407.5c-13.5 17.2-36.1 27.5-60.6 27.5H748l-6.2-81.3c-6.1-80.3-74-143.2-154.6-143.2l-212.8 1.7h-0.9c-31.8 0-61.9-13.7-82.8-37.7-21.1-24.2-30.6-56.3-26-88L275 512h8l46.1 1.5c12.9 19.2 25.6 36.4 36.4 50.3 50.9 65.5 119.5 135 146.5 135 25.8 0 101.3-80.5 144.2-135 11-14 23.9-31.2 37-50.4h93.1c34.2 0 64 20.3 70.9 48.3l74.7 303.1c3.8 15.7 0.1 31.7-10.4 45.1z" fill="#2D3A69" p-id="10100"></path></svg>