<?xml version="1.0" standalone="no"?><!DOCTYPE svg PUBLIC "-//W3C//DTD SVG 1.1//EN" "http://www.w3.org/Graphics/SVG/1.1/DTD/svg11.dtd"><svg t="1697760980956" class="icon" viewBox="0 0 1024 1024" version="1.1" xmlns="http://www.w3.org/2000/svg" p-id="1716" xmlns:xlink="http://www.w3.org/1999/xlink" width="200" height="200"><path d="M496.1 286.5s-56.4-169 87.6-169c162.8 0.1 171.1 273.3-22.9 396.4 0 0-140.9-31-219.1-129.4-67-84.3-79.3-246.2 93.9-219.1 0 0.1 51.1 5.9 60.5 121.1z" fill="#77DBCF" p-id="1717"></path><path d="M796.9 547.8s167.5 3.3 122.1 130.9c-51.3 144.2-296 65.5-344-145.2 0 0 71.9-115.1 183.6-153.3 95.7-32.8 243.1 7.3 164.5 152.2 0.1-0.1-8.5 31.7-126.2 15.4zM354.3 651.2s-146.2 81.9-46 173c113.3 103 291.9-81.9 234.9-290.3 0 0-117.6-67.6-234.2-48.6-99.9 16.2-210.9 121.1-73.3 211.8 0 0 44.7 22.8 118.6-45.9z" fill="#77DBCF" p-id="1718"></path><path d="M489.7 496.1c-1.3 0-2.5-0.1-3.8-0.4-6-1.3-148-33.5-229.2-135.6-42-52.8-68.2-140.5-34-199.1 17.3-29.8 56.5-62.4 144.6-48.6 9.7 1.5 16.3 10.6 14.8 20.3-1.5 9.7-10.7 16.3-20.3 14.8-37.7-5.9-87.1-5.2-108.4 31.4-24.9 42.7-3.2 115.9 31.2 159.1 63.7 80.2 173.3 113.7 202 121.3 111.9-74.7 147.6-199.9 123.9-281.5-8.5-29.1-32.4-78-97.8-78.1h-0.1c-31.7 0-53.3 8.7-66.2 26.5-29.8 41.3-4.8 118.4-4.5 119.2 3.1 9.3-2 19.4-11.2 22.4-9.3 3.1-19.3-1.9-22.4-11.2-1.3-3.8-31-95 9.4-151.1 19.8-27.4 51.7-41.3 95-41.3h0.1c63.7 0 113 38.8 131.9 103.7 27.7 95.5-13.8 242-145.3 325.5-3 1.8-6.3 2.7-9.7 2.7z" fill="#333333" p-id="1719"></path><path d="M740.5 734.3c-3.4 0-6.7-0.1-10.2-0.3-93.7-5.5-211-88.8-243.6-232.1-1-4.6-0.2-9.4 2.3-13.3 3.1-4.9 76.5-120.9 192.9-160.7 60.3-20.6 146.8-16.2 188.2 32.9 21.1 25 37.9 70.4-2.4 144.6-4.7 8.6-15.5 11.8-24.1 7.1-8.6-4.7-11.8-15.5-7.1-24.1 16.9-31.2 31.8-74.8 6.5-104.7-26.5-31.4-93.6-41.4-149.6-22.2-90.3 30.9-154.1 116.4-170.3 139.9 30.9 121.9 130 192.5 209.3 197.2 28.3 1.7 78.5-4.1 98.9-61.3 9.9-27.7 9.1-49.3-2.5-66.1-22.3-32.3-82.1-40.6-103.3-41.1-9.8-0.2-17.6-8.3-17.4-18.1 0.2-9.8 8.4-17.2 18.1-17.4 3.8 0.1 94.5 2.5 131.7 56.4 18.3 26.4 20.5 59.5 6.8 98.2-19.1 53.8-65.2 85.1-124.2 85.1z" fill="#333333" p-id="1720"></path><path d="M309.7 835.6c-30.4 0-59.6-11.4-84.3-33.8-30.4-27.7-44-57.9-40.4-89.8 7.4-65.1 86.3-110 89.6-111.8 8.6-4.8 19.3-1.7 24.1 6.8 4.8 8.5 1.8 19.4-6.8 24.2-18.5 10.4-67.3 45.9-71.7 84.9-2.3 20.2 7.2 39.6 29 59.4 45 40.9 92.1 22.2 116.1 7.5 67.7-41.5 121.8-150.5 91.6-272.6-25.4-13.1-122.2-58.3-216.2-43.1-58.4 9.5-112.9 49.9-121.5 90.1-8.2 38.4 25.4 69.7 55.1 89.3 8.2 5.4 10.4 16.4 5.1 24.6-5.4 8.2-16.4 10.4-24.6 5.1-70.4-46.5-77-94.4-70.2-126.4 13.4-62.8 87.6-107.5 150.5-117.8C356.6 412.5 476 480.1 481 483c4.1 2.3 7 6.2 8.3 10.7C528.2 635.5 464 764.2 384 813.3c-24.4 14.9-49.7 22.3-74.3 22.3z" fill="#333333" p-id="1721"></path><path d="M551.6 938.9c-9.3 0-17.1-7.2-17.7-16.6-0.2-2.8-18.9-280.9-52-385.3-3-9.3 2.2-19.3 11.6-22.3 9.3-3 19.3 2.2 22.3 11.6 34.4 108.4 52.8 382.1 53.6 393.7 0.6 9.8-6.8 18.2-16.6 18.9h-1.2z" fill="#333333" p-id="1722"></path></svg>